<svg width="58" height="58" viewBox="0 0 58 58" fill="none" xmlns="http://www.w3.org/2000/svg">
<path d="M35.5783 0.755958C29.9922 -0.545108 24.1457 -0.160471 18.7781 1.86123C13.4106 3.88293 8.76307 7.45089 5.42332 12.1139C2.08356 16.7769 0.201559 22.3256 0.0152957 28.0582C-0.170968 33.7909 1.34688 39.45 4.37688 44.32C7.40689 49.19 11.813 53.0521 17.038 55.418C22.2629 57.7838 28.0721 58.5472 33.731 57.6115C39.3898 56.6758 44.6441 54.0831 48.8294 50.1612C53.0146 46.2393 55.943 41.1644 57.244 35.5783L55.3475 35.1366C54.1338 40.3476 51.4021 45.0817 47.4978 48.7402C43.5936 52.3988 38.6921 54.8174 33.4133 55.6902C28.1345 56.5631 22.7153 55.851 17.8412 53.644C12.9671 51.437 8.85686 47.8342 6.03032 43.2913C3.20378 38.7483 1.78786 33.4692 1.96161 28.1215C2.13537 22.7738 3.891 17.5977 7.00648 13.2478C10.122 8.8979 14.4574 5.56953 19.4645 3.68359C24.4716 1.79765 29.9255 1.43884 35.1366 2.65254L35.5783 0.755958Z" fill="#B476FF"/>
<circle cx="24" cy="24" r="24" transform="matrix(-1 0 0 1 53 5)" fill="#B476FF"/>
<path d="M36 22L22 36M26 23.5C26 24.8807 24.8807 26 23.5 26C22.1193 26 21 24.8807 21 23.5C21 22.1193 22.1193 21 23.5 21C24.8807 21 26 22.1193 26 23.5ZM37 34.5C37 35.8807 35.8807 37 34.5 37C33.1193 37 32 35.8807 32 34.5C32 33.1193 33.1193 32 34.5 32C35.8807 32 37 33.1193 37 34.5Z" stroke="white" stroke-width="2" stroke-linecap="round" stroke-linejoin="round"/>
</svg>
