<svg width="58" height="58" viewBox="0 0 58 58" fill="none" xmlns="http://www.w3.org/2000/svg">
<path d="M35.5783 0.755958C29.9922 -0.545108 24.1457 -0.160471 18.7781 1.86123C13.4106 3.88293 8.76307 7.45089 5.42332 12.1139C2.08356 16.7769 0.201559 22.3256 0.0152957 28.0582C-0.170968 33.7909 1.34688 39.45 4.37688 44.32C7.40689 49.19 11.813 53.0521 17.038 55.418C22.2629 57.7838 28.0721 58.5472 33.731 57.6115C39.3898 56.6758 44.6441 54.0831 48.8294 50.1612C53.0146 46.2393 55.943 41.1644 57.244 35.5783L55.3475 35.1366C54.1338 40.3476 51.4021 45.0817 47.4978 48.7402C43.5936 52.3988 38.6921 54.8174 33.4133 55.6902C28.1345 56.5631 22.7153 55.851 17.8412 53.644C12.9671 51.437 8.85686 47.8342 6.03032 43.2913C3.20378 38.7483 1.78786 33.4692 1.96161 28.1215C2.13537 22.7738 3.891 17.5977 7.00648 13.2478C10.122 8.8979 14.4574 5.56953 19.4645 3.68359C24.4716 1.79765 29.9255 1.43884 35.1366 2.65254L35.5783 0.755958Z" fill="#B476FF"/>
<circle cx="24" cy="24" r="24" transform="matrix(-1 0 0 1 53 5)" fill="#B476FF"/>
<g clip-path="url(#clip0_392_3922)">
<path d="M29 33.7457V35.3329" stroke="white" stroke-linecap="round" stroke-linejoin="round"/>
<path d="M29 25.8729V27.35" stroke="white" stroke-linecap="round" stroke-linejoin="round"/>
<path d="M29 39.1986C34.5 39.1986 38.4286 37.25 38.4286 32.9129C38.4286 28.1986 36.0714 25.0557 31.3571 22.6986L33.2114 20.31C33.3056 20.1533 33.3567 19.9744 33.3595 19.7916C33.3623 19.6088 33.3168 19.4285 33.2274 19.2689C33.1381 19.1094 33.0081 18.9763 32.8508 18.8832C32.6934 18.79 32.5143 18.7401 32.3314 18.7386H25.6686C25.4857 18.7401 25.3065 18.79 25.1492 18.8832C24.9918 18.9763 24.8619 19.1094 24.7726 19.2689C24.6832 19.4285 24.6376 19.6088 24.6404 19.7916C24.6433 19.9744 24.6944 20.1533 24.7886 20.31L26.6428 22.7143C21.9286 25.0871 19.5714 28.23 19.5714 32.9443C19.5714 37.25 23.5 39.1986 29 39.1986Z" stroke="white" stroke-width="2" stroke-linecap="round" stroke-linejoin="round"/>
<path d="M27.4286 33.0229C27.6203 33.2505 27.8616 33.4311 28.134 33.551C28.4064 33.6708 28.7027 33.7267 29 33.7143C29.4545 33.7453 29.9032 33.5988 30.252 33.3058C30.6007 33.0127 30.8223 32.5959 30.87 32.1429C30.8223 31.6898 30.6007 31.273 30.252 30.9799C29.9032 30.6869 29.4545 30.5405 29 30.5714C28.5455 30.6024 28.0968 30.456 27.748 30.1629C27.3993 29.8699 27.1778 29.453 27.13 29C27.1739 28.5454 27.3944 28.1262 27.744 27.8323C28.0937 27.5385 28.5446 27.3935 29 27.4286C29.2921 27.4107 29.5845 27.4578 29.8563 27.5665C30.128 27.6752 30.3722 27.8428 30.5714 28.0571" stroke="white" stroke-width="1.8" stroke-linecap="round" stroke-linejoin="round"/>
</g>
<defs>
<clipPath id="clip0_392_3922">
<rect width="22" height="22" fill="white" transform="translate(18 18)"/>
</clipPath>
</defs>
</svg>
