<svg width="58" height="58" viewBox="0 0 58 58" fill="none" xmlns="http://www.w3.org/2000/svg">
<path d="M35.5783 0.755958C29.9922 -0.545108 24.1457 -0.160471 18.7781 1.86123C13.4106 3.88293 8.76307 7.45089 5.42332 12.1139C2.08356 16.7769 0.201559 22.3256 0.0152957 28.0582C-0.170968 33.7909 1.34688 39.45 4.37688 44.32C7.40689 49.19 11.813 53.0521 17.038 55.418C22.2629 57.7838 28.0721 58.5472 33.731 57.6115C39.3898 56.6758 44.6441 54.0831 48.8294 50.1612C53.0146 46.2393 55.943 41.1644 57.244 35.5783L55.3475 35.1366C54.1338 40.3476 51.4021 45.0817 47.4978 48.7402C43.5936 52.3988 38.6921 54.8174 33.4133 55.6902C28.1345 56.5631 22.7153 55.851 17.8412 53.644C12.9671 51.437 8.85686 47.8342 6.03032 43.2913C3.20378 38.7483 1.78786 33.4692 1.96161 28.1215C2.13537 22.7738 3.891 17.5977 7.00648 13.2478C10.122 8.8979 14.4574 5.56953 19.4645 3.68359C24.4716 1.79765 29.9255 1.43884 35.1366 2.65254L35.5783 0.755958Z" fill="#B476FF"/>
<circle cx="24" cy="24" r="24" transform="matrix(-1 0 0 1 53 5)" fill="#B476FF"/>
<path fill-rule="evenodd" clip-rule="evenodd" d="M19 22C19 20.3431 20.3431 19 22 19H36C37.6569 19 39 20.3431 39 22V36C39 37.6569 37.6569 39 36 39H22C20.3431 39 19 37.6569 19 36V22ZM22 21C21.4477 21 21 21.4477 21 22V36C21 36.5523 21.4477 37 22 37H36C36.5523 37 37 36.5523 37 36V22C37 21.4477 36.5523 21 36 21H22ZM24 24.9695C24 24.4172 24.4477 23.9695 25 23.9695H33C33.5523 23.9695 34 24.4172 34 24.9695C34 25.5218 33.5523 25.9695 33 25.9695H25C24.4477 25.9695 24 25.5218 24 24.9695ZM24 28.9695C24 28.4172 24.4477 27.9695 25 27.9695H33C33.5523 27.9695 34 28.4172 34 28.9695C34 29.5218 33.5523 29.9695 33 29.9695H25C24.4477 29.9695 24 29.5218 24 28.9695ZM24 32.9695C24 32.4172 24.4477 31.9695 25 31.9695H33C33.5523 31.9695 34 32.4172 34 32.9695C34 33.5218 33.5523 33.9695 33 33.9695H25C24.4477 33.9695 24 33.5218 24 32.9695Z" fill="white"/>
</svg>
