<svg width="58" height="58" viewBox="0 0 58 58" fill="none" xmlns="http://www.w3.org/2000/svg">
<path d="M35.5783 0.755958C29.9922 -0.545108 24.1457 -0.160471 18.7781 1.86123C13.4106 3.88293 8.76307 7.45089 5.42332 12.1139C2.08356 16.7769 0.201559 22.3256 0.0152957 28.0582C-0.170968 33.7909 1.34688 39.45 4.37688 44.32C7.40689 49.19 11.813 53.0521 17.038 55.418C22.2629 57.7838 28.0721 58.5472 33.731 57.6115C39.3898 56.6758 44.6441 54.0831 48.8294 50.1612C53.0146 46.2393 55.943 41.1644 57.244 35.5783L55.3475 35.1366C54.1338 40.3476 51.4021 45.0817 47.4978 48.7402C43.5936 52.3988 38.6921 54.8174 33.4133 55.6902C28.1345 56.5631 22.7153 55.851 17.8412 53.644C12.9671 51.437 8.85686 47.8342 6.03032 43.2913C3.20378 38.7483 1.78786 33.4692 1.96161 28.1215C2.13537 22.7738 3.891 17.5977 7.00648 13.2478C10.122 8.8979 14.4574 5.56953 19.4645 3.68359C24.4716 1.79765 29.9255 1.43884 35.1366 2.65254L35.5783 0.755958Z" fill="#B476FF"/>
<circle cx="24" cy="24" r="24" transform="matrix(-1 0 0 1 53 5)" fill="#B476FF"/>
<path d="M24.4506 26.6667C24.5218 26.6667 24.5923 26.6527 24.658 26.6255C24.7238 26.5983 24.7835 26.5584 24.8339 26.5081C24.8842 26.4578 24.9241 26.3981 24.9513 26.3323C24.9785 26.2666 24.9925 26.1961 24.9925 26.125V22.875C24.9925 21.8694 25.392 20.905 26.1033 20.1939C26.8145 19.4828 27.7792 19.0833 28.7851 19.0833C29.7909 19.0833 30.7556 19.4828 31.4669 20.1939C32.1781 20.905 32.5777 21.8694 32.5777 22.875V26.125C32.5777 26.2687 32.6348 26.4064 32.7364 26.508C32.838 26.6096 32.9758 26.6667 33.1195 26.6667C33.2632 26.6667 33.401 26.6096 33.5026 26.508C33.6042 26.4064 33.6613 26.2687 33.6613 26.125V22.875C33.6613 21.5821 33.1476 20.3421 32.2331 19.4279C31.3186 18.5136 30.0783 18 28.7851 18C27.4918 18 26.2515 18.5136 25.3371 19.4279C24.4226 20.3421 23.9088 21.5821 23.9088 22.875V26.125C23.9088 26.1961 23.9228 26.2666 23.95 26.3323C23.9772 26.3981 24.0171 26.4578 24.0674 26.5081C24.1178 26.5584 24.1775 26.5983 24.2433 26.6255C24.309 26.6527 24.3795 26.6667 24.4506 26.6667Z" fill="white" stroke="white" stroke-width="1.3"/>
<path d="M21.9045 40.75H35.6655C35.9642 40.7452 36.2585 40.6768 36.5287 40.5493C36.799 40.4219 37.0389 40.2384 37.2327 40.011C37.5228 39.6661 37.7385 39.265 37.8661 38.8328C37.9938 38.4005 38.0307 37.9466 37.9745 37.4995L36.4242 23.4167H21.1458L19.5955 37.4995C19.5393 37.9466 19.5762 38.4005 19.7039 38.8328C19.8315 39.265 20.0472 39.6661 20.3373 40.011C20.5311 40.2384 20.771 40.4219 21.0413 40.5493C21.3115 40.6768 21.6058 40.7452 21.9045 40.75ZM35.4528 24.5L36.8972 37.618C36.9379 37.9138 36.9169 38.2149 36.8357 38.5022C36.7545 38.7896 36.6147 39.0571 36.4253 39.2879C36.3326 39.4012 36.217 39.4935 36.086 39.5588C35.9551 39.6241 35.8117 39.6609 35.6655 39.6667H21.9045C21.7583 39.6609 21.6149 39.6241 21.484 39.5588C21.353 39.4935 21.2374 39.4012 21.1447 39.2879C20.9552 39.0571 20.8155 38.7896 20.7343 38.5022C20.6531 38.2149 20.6321 37.9138 20.6728 37.618L22.1172 24.5H35.4528Z" fill="white" stroke="white" stroke-width="1.3"/>
</svg>
